<?xml version="1.0" encoding="utf-8"?><svg viewBox="0 0 40 40" xmlns="http://www.w3.org/2000/svg" xmlns:xlink="http://www.w3.org/1999/xlink"><style>:root>svg{display:none}:root>svg:target{display:block}</style><svg viewBox="0 0 40 40" id="arrow-type-1" xmlns="http://www.w3.org/2000/svg"><path fill-rule="evenodd" clip-rule="evenodd" d="M1.293 1.293a1 1 0 000 1.413l36.001 36.001a.999.999 0 101.413-1.413L2.706 1.293a1 1 0 00-1.413 0z"/><path fill-rule="evenodd" clip-rule="evenodd" d="M38 1a1 1 0 00-.998 1v35.002H1.999A1 1 0 102 39h36.002A1 1 0 0039 38V2a1 1 0 00-1-1z"/></svg><svg viewBox="0 0 24 24" id="close" xmlns="http://www.w3.org/2000/svg"><path fill-rule="evenodd" clip-rule="evenodd" d="M18.707 5.293a1 1 0 010 1.414l-12 12a1 1 0 01-1.414-1.414l12-12a1 1 0 011.414 0z"/><path fill-rule="evenodd" clip-rule="evenodd" d="M5.293 5.293a1 1 0 011.414 0l12 12a1 1 0 01-1.414 1.414l-12-12a1 1 0 010-1.414z"/></svg><svg viewBox="0 0 26 26" id="discord-logo" xmlns="http://www.w3.org/2000/svg"><path d="M9.556 3.003s-3.6.248-5.953 2.138a.261.261 0 00-.035.017c-.408.378-.715.963-1.095 1.802-.38.839-.782 1.918-1.148 3.126C.595 12.504 0 15.471 0 18.264c-.002.1.022.197.07.283.827 1.45 2.346 2.327 3.763 2.879 1.417.552 2.727.772 3.391.795a.567.567 0 00.477-.23l1.378-1.908c1.11.263 2.413.442 3.921.442s2.81-.179 3.921-.442l1.378 1.908c.11.15.29.236.477.23.664-.023 1.974-.243 3.391-.795s2.936-1.429 3.762-2.88a.549.549 0 00.07-.282c0-2.793-.593-5.76-1.324-8.178a26.377 26.377 0 00-1.148-3.126c-.38-.84-.687-1.424-1.095-1.802a.263.263 0 00-.035-.017c-2.354-1.89-5.953-2.138-5.953-2.138a.58.58 0 00-.123 0 .565.565 0 00-.442.336s-.192.422-.318 1.024A17.139 17.139 0 0013 4.133c-.532 0-1.46.054-2.561.23a5.377 5.377 0 00-.318-1.024.567.567 0 00-.565-.336zm-.354 1.22c.042.114.071.222.106.352-1.273.296-2.669.78-3.974 1.59a.567.567 0 00-.346.508.572.572 0 00.32.523c.2.095.44.066.61-.077C8.535 5.496 11.867 5.264 13 5.264c1.133 0 4.464.232 7.083 1.855.17.143.408.172.61.077a.572.572 0 00.32-.523.567.567 0 00-.347-.508c-1.305-.81-2.7-1.294-3.974-1.59.035-.13.064-.238.105-.353.645.08 3.151.417 4.858 1.766.11.102.494.667.848 1.449.353.781.724 1.8 1.077 2.967.689 2.279 1.245 5.09 1.272 7.666-.643 1.04-1.848 1.812-3.091 2.296-1.13.44-2.186.636-2.738.689l-.954-1.29c.486-.156.923-.326 1.307-.494 1.427-.627 2.19-1.29 2.19-1.29a.57.57 0 00-.759-.847s-.592.54-1.89 1.112c-.477.21-1.055.418-1.713.6a.566.566 0 00-.424.125c-1.053.256-2.305.423-3.78.423-1.486 0-2.74-.183-3.797-.441a.563.563 0 00-.407-.088 12.777 12.777 0 01-1.713-.619c-1.298-.572-1.89-1.112-1.89-1.112a.563.563 0 00-.477-.142.565.565 0 00-.283.99s.764.662 2.19 1.289c.385.168.822.338 1.308.494l-.954 1.29c-.552-.053-1.607-.25-2.738-.69-1.243-.483-2.448-1.255-3.09-2.295.026-2.577.582-5.387 1.271-7.666.353-1.168.724-2.186 1.077-2.967.354-.782.738-1.347.848-1.449C6.052 4.64 8.558 4.302 9.202 4.222zm.124 6.693c-1.442 0-2.543 1.31-2.543 2.826 0 1.517 1.101 2.826 2.543 2.826 1.442 0 2.544-1.309 2.544-2.826 0-1.517-1.102-2.826-2.544-2.826zm7.348 0c-1.442 0-2.544 1.31-2.544 2.826 0 1.517 1.102 2.826 2.544 2.826s2.543-1.309 2.543-2.826c0-1.517-1.101-2.826-2.543-2.826zm-7.348 1.13c.744 0 1.413.716 1.413 1.696s-.669 1.696-1.413 1.696-1.413-.715-1.413-1.696c0-.98.67-1.695 1.413-1.695zm7.348 0c.744 0 1.413.716 1.413 1.696s-.67 1.696-1.413 1.696c-.744 0-1.413-.715-1.413-1.696 0-.98.669-1.695 1.413-1.695z"/></svg><svg viewBox="0 0 24 24" id="menu-icon" xmlns="http://www.w3.org/2000/svg"><path d="M.5 2.5A.5.5 0 011 2h22a.5.5 0 010 1H1a.5.5 0 01-.5-.5zM7.5 8.5A.5.5 0 018 8h15a.5.5 0 010 1H8a.5.5 0 01-.5-.5zM4.5 14.5A.5.5 0 015 14h18a.5.5 0 010 1H5a.5.5 0 01-.5-.5zM.5 20.5A.5.5 0 011 20h22a.5.5 0 010 1H1a.5.5 0 01-.5-.5z"/></svg><svg viewBox="0 0 26 26" id="telegram-logo" xmlns="http://www.w3.org/2000/svg"><path d="M22.515 3.002c-.253.01-.5.081-.722.17-.22.089-1.487.63-3.357 1.43-1.871.799-4.303 1.84-6.714 2.873l-9.559 4.098.035-.013s-.286.096-.576.298a1.6 1.6 0 00-.429.421c-.127.19-.22.46-.186.745.124 1 1.161 1.285 1.161 1.285l.004.002 4.63 1.584c.118.394 1.404 4.686 1.687 5.595.156.503.302.792.455.99a.962.962 0 00.244.232.684.684 0 00.109.054h.002l.013.004-.012-.003c.009.003.017.009.025.012.017.006.027.005.048.01.53.185.97-.159.97-.159l.017-.014 2.844-2.637 4.615 3.598.058.026c.808.36 1.538.159 1.943-.17.404-.33.564-.754.564-.754l.017-.044L23.792 4.96c.087-.396.1-.738.017-1.046a1.215 1.215 0 00-.53-.727 1.346 1.346 0 00-.764-.185zm.028 1.057a.477.477 0 01.203.021c.024.014.035.013.058.1.023.087.035.27-.028.557l-.002.006-3.372 17.573c-.008.017-.078.18-.238.31-.164.134-.346.238-.829.035l-5.047-3.936-.142-.111-.003.003-1.509-1.133 8.482-9.978a.52.52 0 00-.685-.77L7.158 14.918 2.522 13.33s-.46-.257-.483-.435c0-.01-.006-.001.018-.037a.684.684 0 01.16-.148c.15-.105.322-.169.322-.169l.017-.006.018-.007 9.559-4.098c2.41-1.033 4.842-2.073 6.712-2.873 1.87-.8 3.22-1.375 3.335-1.421.13-.052.26-.073.363-.078zM16.918 9.66l-6.432 7.567-.003.003a.516.516 0 00-.057.082.52.52 0 00-.068.2v.004l-.838 3.768c-.013-.04-.023-.056-.038-.104-.266-.856-1.48-4.904-1.647-5.464l9.083-6.056zm-5.705 8.807l1.155.868-1.698 1.574.543-2.442z"/></svg></svg>